<svg width="96" height="96" viewBox="0 0 96 96" fill="none" xmlns="http://www.w3.org/2000/svg">
<path d="M41.4727 24.5663C28.0428 26.9362 18 36.4648 18 47.8588C18 53.7147 20.6527 59.0778 25.0544 63.2297L24 76L37.121 70.1005C40.4938 71.1447 44.1628 71.7177 48 71.7177C55.9948 71.7177 63.2592 69.2305 68.6366 65.1761" stroke="#268CFF" stroke-width="5.5" stroke-linecap="round" stroke-linejoin="round"/>
<path fill-rule="evenodd" clip-rule="evenodd" d="M62 25.6C73.0457 25.6 82 32.7213 82 41.5059C82 45.4098 80.2316 48.9852 77.297 51.7531L78 60.2667L69.2527 56.3337C67.0041 57.0298 64.5582 57.4118 62 57.4118C50.9543 57.4118 42 50.2905 42 41.5059C42 32.7213 50.9543 25.6 62 25.6Z" stroke="#268CFF" stroke-width="5.5" stroke-linecap="round" stroke-linejoin="round"/>
</svg>
