<svg width="96" height="96" viewBox="0 0 96 96" fill="none" xmlns="http://www.w3.org/2000/svg">
<path fill-rule="evenodd" clip-rule="evenodd" d="M21.4867 24.874H74.1828C76.3919 24.874 78.1828 26.6648 78.1828 28.874C78.1828 28.8784 78.1828 28.8829 78.1828 28.8873L78.0629 64.8027C78.0555 67.0066 76.2668 68.7893 74.0629 68.7893H21.4468C19.2376 68.7893 17.4468 66.9985 17.4468 64.7893C17.4468 64.7879 17.4468 64.7864 17.4468 64.7849L17.4868 28.8695C17.4892 26.6621 19.2793 24.874 21.4867 24.874Z" stroke="#408CFF" stroke-width="5.5" stroke-linejoin="round"/>
<path d="M77.399 26.7641C77.399 26.7641 67.6157 35.1392 48.0489 51.8893M48.0489 51.8893C28.3846 35.1392 18.5524 26.7641 18.5524 26.7641L48.0489 51.8893Z" stroke="#408CFF" stroke-width="5.5" stroke-linecap="round" stroke-linejoin="round"/>
</svg>
